<svg xmlns="http://www.w3.org/2000/svg" xmlns:xlink="http://www.w3.org/1999/xlink" version="1.1" width="1000" height="1000" viewBox="0 0 1000 1000" xml:space="preserve">
<desc>Created with Fabric.js 3.5.0</desc>
<defs>
</defs>
<rect x="0" y="0" width="100%" height="100%" fill="#ffffff"/>
<g transform="matrix(-1.718 0 0 -1.718 500.0087 500.0044)" id="308253">
<path style="stroke: rgb(0,0,0); stroke-width: 0; stroke-dasharray: none; stroke-linecap: butt; stroke-dashoffset: 0; stroke-linejoin: miter; stroke-miterlimit: 4; is-custom-font: none; font-file-url: none; fill: rgb(252,209,22); fill-rule: evenodd; opacity: 1;" vector-effect="non-scaling-stroke" transform=" translate(-264.5833, -132.2917)" d="m 56.799027 99.129141 c 31.36468 0.792392 71.714333 1.215159 107.433683 0.898079 c 35.77449 -0.317079 81.63638 -3.381191 106.9376 -2.852885 c 25.35633 0.528258 27.12028 -5.917085 22.71045 -13.15493 c -4.40978 -7.237859 -34.0657 -24.830608 -39.74329 -36.717602 c -5.67762 -11.834147 1.54346 -26.626854 5.62248 -34.498676 c 4.13418 -7.8718422 10.91426 -12.57379672 18.907 -12.78512262 c 8.04789 -0.26413232 7.77228 2.32456412 29.27006 11.30584162 l 99.88191 42.370519 c 29.43538 11.992665 58.04396 21.7664 76.78559 29.479742 c 18.79678 7.713343 28.77394 9.509602 35.82961 16.853123 c 7.05568 7.34351 11.63085 17.27575 6.6147 27.20798 c -4.96102 9.87943 -6.50445 11.20019 -36.43594 32.27981 c -29.98664 21.07959 -112.3396 77.13336 -143.37357 94.19779 c -30.97882 17.06445 -39.57793 9.1926 -42.55453 8.18883 c -3.03173 -1.00378 -5.01616 -13.36627 -11.18988 -20.65695 c -2.42539 -5.86426 -9.20545 -11.25302 -7.27615 -17.48711 c 1.92931 -6.23406 10.91425 -12.15114 18.85189 -19.86445 c 7.93762 -7.66052 22.71046 -19.91734 28.77392 -26.25706 c 6.1186 -6.33973 8.10299 -8.18882 7.66201 -11.78134 c -0.38586 -3.64534 -1.21262 -8.71712 -12.73328 -8.40014 c -11.46548 0.26413 -17.14309 0.26413 -49.55509 1.53205 l -145.02722 6.1284 l -72.927046 2.64155 c -17.639194 1.00378 -25.797318 2.85288 -33.183731 3.43402 c -7.386413 0.52826 -18.8518872 3.06421 -23.4270491 -0.73965 c -4.63027964 -3.80383 -5.29175419 -16.53613 -4.18929663 -22.45321 c 0.16468588 -5.38876 5.51224543 -4.54348 10.85911773 -13.1021 c 4.299553 -6.65671 1.598495 -16.95877 5.567384 -23.82681 c 2.53562 -5.12463 3.141977 -7.29069 6.724938 -9.61526 c 3.582961 -2.324564 9.646425 -2.218906 14.166469 -3.22269 z" stroke-linecap="round"/>
</g>
</svg>